<?xml version="1.0" encoding="utf-8"?>
<!-- Generator: Adobe Illustrator 24.0.0, SVG Export Plug-In . SVG Version: 6.00 Build 0)  -->
<svg version="1.1" id="Layer_1" xmlns="http://www.w3.org/2000/svg" xmlns:xlink="http://www.w3.org/1999/xlink" x="0px" y="0px"
	 viewBox="0 0 512 512" enable-background="new 0 0 512 512" xml:space="preserve">
<g>
	<g>
		<path fill="#4B55A5" d="M416,480H96c-17.673,0-32-14.327-32-32v-32c0-17.673,14.327-32,32-32h320c17.673,0,32,14.327,32,32v32
			C448,465.673,433.673,480,416,480z"/>
	</g>
	<g>
		<path fill="#6478B9" d="M416,448H96c-17.673,0-32-14.327-32-32v0c0-17.673,14.327-32,32-32h320c17.673,0,32,14.327,32,32v0
			C448,433.673,433.673,448,416,448z"/>
	</g>
	<g>
		<path fill="#4B55A5" d="M320,432H192c-8.837,0-16-7.163-16-16v0c0-8.837,7.163-16,16-16h128c8.837,0,16,7.163,16,16v0
			C336,424.837,328.837,432,320,432z"/>
	</g>
	<g>
		<path fill="#D7322D" d="M408,168c0-83.947-68.053-152-152-152S104,84.053,104,168c0,1.43,0.024,2.854,0.063,4.275
			c2.31,129.6,108.759,217.645,137.078,238.802c4.29,3.205,9.505,4.923,14.859,4.923h0c5.354,0,10.569-1.718,14.859-4.923
			c28.319-21.157,134.768-109.202,137.078-238.802C407.976,170.854,408,169.43,408,168z"/>
	</g>
	<g>
		<g>
			<circle fill="#A5C3DC" cx="256" cy="168" r="120"/>
		</g>
		<g>
			<circle fill="#4B55A5" cx="256" cy="168" r="88"/>
		</g>
		<g>
			<path fill="#6478B9" d="M322.667,225.441v-6.774c0-17.673-14.327-32-32-32l-69.333,0c-17.673,0-32,14.327-32,32v6.774
				C205.471,244.153,229.351,256,256,256S306.529,244.153,322.667,225.441z"/>
		</g>
		<g>
			<path fill="#D7E6F0" d="M256,226.667L256,226.667c-16.2,0-29.333-13.133-29.333-29.333v-10.667h58.667v10.667
				C285.333,213.534,272.2,226.667,256,226.667z"/>
		</g>
		<g>
			<circle fill="#FAB991" cx="256" cy="138.667" r="40"/>
		</g>
		<path fill="#D7E6F0" d="M256,48c-66.274,0-120,53.726-120,120c0,4.418,3.582,8,8,8s8-3.582,8-8c0-57.438,46.562-104,104-104
			s104,46.563,104,104c0,4.418,3.582,8,8,8s8-3.582,8-8C376,101.726,322.274,48,256,48z"/>
	</g>
	<path fill="#F04B37" d="M256,16c-83.947,0-152,68.053-152,152c0,8.836,7.163,16,16,16s16-7.164,16-16c0-66.274,53.726-120,120-120
		s120,53.726,120,120c0,8.836,7.163,16,16,16s16-7.164,16-16C408,84.053,339.947,16,256,16z"/>
</g>
</svg>
