<?xml version="1.0" encoding="utf-8"?>
<!-- Generator: Adobe Illustrator 24.0.0, SVG Export Plug-In . SVG Version: 6.00 Build 0)  -->
<svg version="1.1" id="Layer_1" xmlns="http://www.w3.org/2000/svg" xmlns:xlink="http://www.w3.org/1999/xlink" x="0px" y="0px"
	 viewBox="0 0 512 512" enable-background="new 0 0 512 512" xml:space="preserve">
<g>
	<g>
		<g>
			<path fill="#F0915A" d="M262.627,32c-4.243,0-8.313,1.686-11.314,4.687l-54.627,54.627c-3.001,3.001-4.686,7.07-4.686,11.313V160
				h192c17.673,0,32-14.327,32-32h16V32H262.627z"/>
		</g>
		<g>
			<g>
				<g>
					<circle fill="#FAA51E" cx="256" cy="176" r="88"/>
				</g>
				<g>
					<path fill="#F06423" d="M256,96c44.112,0,80,35.888,80,80s-35.888,80-80,80s-80-35.888-80-80S211.888,96,256,96 M256,80
						c-53.019,0-96,42.98-96,96c0,53.019,42.981,96,96,96c53.019,0,96-42.981,96-96C352,122.981,309.019,80,256,80L256,80z"/>
				</g>
			</g>
			<path fill="#F06423" d="M280,168c4.418,0,8-3.582,8-8v-5.403c0-13.789-10.549-25.161-24-26.471V120c0-4.418-3.582-8-8-8
				s-8,3.582-8,8v8.126c-13.451,1.31-24,12.682-24,26.471c0,11.466,7.309,21.605,18.186,25.231l22.568,7.523
				c4.334,1.444,7.246,5.483,7.246,10.052c0,5.843-4.753,10.597-10.596,10.597h-10.808c-5.843,0-10.596-4.754-10.596-10.597V192
				c0-4.418-3.582-8-8-8s-8,3.582-8,8v5.403c0,13.789,10.549,25.161,24,26.471V232c0,4.418,3.582,8,8,8s8-3.582,8-8v-8.126
				c13.451-1.31,24-12.682,24-26.471c0-11.466-7.309-21.605-18.186-25.231l-22.568-7.523c-4.334-1.444-7.246-5.483-7.246-10.052
				c0-5.843,4.753-10.597,10.596-10.597h10.808c5.843,0,10.596,4.754,10.596,10.597V160C272,164.418,275.582,168,280,168z"/>
		</g>
		<g>
			<path fill="#FAB991" d="M261.657,101.657l0.887,0.887c14.059,14.059,36.853,14.059,50.912,0L328,88h40c26.51,0,48-21.49,48-48v-8
				h-89.373c-4.243,0-8.313,1.686-11.314,4.686l-53.657,53.657C258.533,93.467,258.533,98.533,261.657,101.657z"/>
		</g>
		<g>
			<path fill="#F0915A" d="M264,88l0.686,0.686c6.248,6.248,16.379,6.248,22.627,0l4.525-4.525c1.562-1.562,1.562-4.095,0-5.657
				l-9.172-9.172L264,88z"/>
		</g>
		<g>
			<path fill="#555A6E" d="M448,144h32V16h-32c-8.837,0-16,7.163-16,16v96C432,136.837,439.163,144,448,144z"/>
		</g>
		<g>
			<path fill="#463C4B" d="M456,80h24v64h-32V88C448,83.582,451.582,80,456,80z"/>
		</g>
	</g>
	<g>
		<path fill="#D7322D" d="M432,256H80c-8.837,0-16,7.163-16,16v224h384V272C448,263.163,440.837,256,432,256z"/>
	</g>
	<g>
		<path fill="#F04B37" d="M336,256H80c-8.837,0-16,7.163-16,16v224h288V272C352,263.163,344.837,256,336,256z"/>
	</g>
	<g>
		<g>
			<circle fill="#A5C3DC" cx="208" cy="376" r="104"/>
		</g>
		<g>
			<path fill="#D7E6F0" d="M304,384c-4.418,0-8-3.582-8-8c0-48.523-39.477-88-88-88s-88,39.477-88,88c0,4.418-3.582,8-8,8
				s-8-3.582-8-8c0-57.346,46.654-104,104-104s104,46.654,104,104C312,380.418,308.418,384,304,384z"/>
		</g>
		<g>
			<circle fill="#4B55A5" cx="208" cy="376" r="72"/>
		</g>
		<g>
			<path fill="#6478B9" d="M261.333,416c0-13.255-10.745-24-24-24h-58.667c-13.255,0-24,10.745-24,24v8.368
				C167.839,438.884,186.854,448,208,448s40.161-9.116,53.333-23.632V416z"/>
		</g>
		<g>
			<path fill="#D7E6F0" d="M208,424L208,424c-13.255,0-24-10.745-24-24v-8h48v8C232,413.255,221.255,424,208,424z"/>
		</g>
		<g>
			<circle fill="#FAB991" cx="208" cy="352" r="32"/>
		</g>
	</g>
</g>
</svg>
