<?xml version="1.0" encoding="utf-8"?>
<!-- Generator: Adobe Illustrator 24.0.0, SVG Export Plug-In . SVG Version: 6.00 Build 0)  -->
<svg version="1.1" id="Layer_1" xmlns="http://www.w3.org/2000/svg" xmlns:xlink="http://www.w3.org/1999/xlink" x="0px" y="0px"
	 viewBox="0 0 512 512" enable-background="new 0 0 512 512" xml:space="preserve">
<g>
	<g>
		<circle fill="#4B55A5" cx="328" cy="168" r="128"/>
	</g>
	<g>
		<path fill="#6EA5D7" d="M328,304c-74.991,0-136-61.009-136-136c0-4.418,3.582-8,8-8s8,3.582,8,8c0,66.168,53.832,120,120,120
			c32.053,0,62.188-12.482,84.853-35.147c3.124-3.124,8.189-3.124,11.313,0c3.125,3.124,3.125,8.189,0,11.313
			C398.479,289.854,364.327,304,328,304z"/>
	</g>
	<g>
		<g>
			<path fill="#FAB991" d="M232,272h-40v24h-88V160c0-35.346,28.654-64,64-64h32c35.346,0,64,28.654,64,64v80
				C264,257.673,249.673,272,232,272z"/>
		</g>
		<g>
			<path fill="#F0915A" d="M192,296h-88v0c0-13.255,10.745-24,24-24h64V296z"/>
		</g>
		<g>
			<circle fill="#353744" cx="216" cy="184" r="8"/>
		</g>
		<g>
			<circle fill="#353744" cx="248" cy="184" r="8"/>
		</g>
		<g>
			<path fill="#F0915A" d="M240,224L240,224c-4.418,0-8-3.582-8-8v-21.333h0c8.837,0,16,7.163,16,16V216
				C248,220.418,244.418,224,240,224z"/>
		</g>
		<g>
			<path fill="#353744" d="M232,248h8c4.418,0,8-3.582,8-8v0h-24v0C224,244.418,227.582,248,232,248z"/>
		</g>
		<g>
			<path fill="#D7E6F0" d="M88,160v80c0,8.837,7.163,16,16,16h40c8.837,0,16-7.163,16-16v-32h0c8.837,0,16-7.163,16-16v-32
				c0-8.837-7.163-16-16-16h-56C95.163,144,88,151.163,88,160z"/>
		</g>
		<g>
			<path fill="#F0915A" d="M160,184c-13.255,0-24,10.745-24,24s10.745,24,24,24V184z"/>
		</g>
		<g>
			<path fill="#353744" d="M264,416H64v-88c0-17.673,14.327-32,32-32h136c17.673,0,32,14.327,32,32V416z"/>
		</g>
		<g>
			<path fill="#D7E6F0" d="M192,296h-48c17.673,0,32,14.327,32,32v16c0,13.255,10.745,24,24,24h0c13.255,0,24-10.745,24-24v-16
				C224,310.327,209.673,296,192,296z"/>
		</g>
		<g>
			<path fill="#6478B9" d="M208,328c0-17.673-14.327-32-32-32h-16c17.673,0,32,14.327,32,32v38.629c2.503,0.885,5.194,1.371,8,1.371
				s5.497-0.486,8-1.371V328z"/>
		</g>
		<g>
			<path fill="#555A6E" d="M128,416H64v-88c0-17.673,14.327-32,32-32h0c17.673,0,32,14.327,32,32V416z"/>
		</g>
	</g>
	<g>
		<g>
			<path fill="#D7322D" d="M40,448h344c8.837,0,16-7.163,16-16v-32c0-8.837-7.163-16-16-16H102.627
				c-4.243,0-8.313,1.686-11.314,4.686L64,416H40c-4.418,0-8,3.582-8,8v16C32,444.418,35.582,448,40,448z"/>
		</g>
		<g>
			
				<rect x="64" y="448" transform="matrix(-1 -1.224647e-16 1.224647e-16 -1 415.9994 943.9997)" fill="#F04B37" width="288" height="48"/>
		</g>
		<g>
			
				<rect x="192" y="448" transform="matrix(-1 -1.224647e-16 1.224647e-16 -1 543.9994 943.9997)" fill="#D7322D" width="160" height="48"/>
		</g>
		<g>
			<path fill="#F04B37" d="M40,416h24l27.314-27.314c3.001-3.001,7.07-4.686,11.314-4.686H192c8.837,0,16,7.163,16,16v32
				c0,8.837-7.163,16-16,16H40c-4.418,0-8-3.582-8-8v-16C32,419.582,35.582,416,40,416z"/>
		</g>
		<g>
			<rect x="64" y="448" fill="#D7322D" width="128" height="32"/>
		</g>
	</g>
	<g>
		<g>
			<path fill="#D7E6F0" d="M328,192L328,192c-8.837,0-16-7.163-16-16v-64c0-8.837,7.163-16,16-16h0c8.837,0,16,7.163,16,16v64
				C344,184.837,336.837,192,328,192z"/>
		</g>
		<g>
			<circle fill="#D7E6F0" cx="328" cy="224" r="16"/>
		</g>
	</g>
	<path fill="#6EA5D7" d="M487.391,172.938C486.153,169.949,483.236,168,480,168h-16c0-74.991-61.009-136-136-136
		c-36.327,0-70.479,14.146-96.167,39.833c-3.125,3.124-3.125,8.189,0,11.313c3.124,3.124,8.189,3.124,11.313,0
		C265.812,60.482,295.947,48,328,48c66.168,0,120,53.832,120,120h-16c-3.236,0-6.153,1.949-7.391,4.938s-0.554,6.43,1.734,8.718
		l24,24c1.562,1.562,3.609,2.343,5.657,2.343s4.095-0.781,5.657-2.343l24-24C487.945,179.369,488.629,175.928,487.391,172.938z"/>
</g>
</svg>
