<?xml version="1.0" encoding="utf-8"?>
<!-- Generator: Adobe Illustrator 24.0.0, SVG Export Plug-In . SVG Version: 6.00 Build 0)  -->
<svg version="1.1" id="Layer_1" xmlns="http://www.w3.org/2000/svg" xmlns:xlink="http://www.w3.org/1999/xlink" x="0px" y="0px"
	 viewBox="0 0 512 512" enable-background="new 0 0 512 512" xml:space="preserve">
<g>
	<g>
		<g>
			<path fill="#4B55A5" d="M16,96v244.686C16,346.935,21.065,352,27.314,352h32c3.001,0,5.878-1.192,8-3.314L96,320h256
				c17.673,0,32-14.327,32-32V96c0-17.673-14.327-32-32-32H48C30.327,64,16,78.327,16,96z"/>
		</g>
		<g>
			<path fill="#6478B9" d="M16,96v244.686C16,346.935,21.065,352,27.314,352h0c3.001,0,5.878-1.192,8-3.314L64,320h256
				c17.673,0,32-14.327,32-32V96c0-17.673-14.327-32-32-32H48C30.327,64,16,78.327,16,96z"/>
		</g>
	</g>
	<g>
		<path fill="#D7322D" d="M496,192v244.686c0,6.248-5.065,11.314-11.314,11.314h-32c-3.001,0-5.878-1.192-8-3.314L416,416H160
			c-17.673,0-32-14.327-32-32V192c0-17.673,14.327-32,32-32h304C481.673,160,496,174.327,496,192z"/>
	</g>
	<g>
		<path fill="#F04B37" d="M464,192v244.686c0,6.248-5.065,11.314-11.314,11.314h0c-3.001,0-5.878-1.192-8-3.314L416,416H160
			c-17.673,0-32-14.327-32-32V192c0-17.673,14.327-32,32-32h272C449.673,160,464,174.327,464,192z"/>
	</g>
	<g>
		<path fill="#6478B9" d="M16,96v244.686C16,346.935,21.065,352,27.314,352h0c3.001,0,5.878-1.192,8-3.314L64,320h256
			c17.673,0,32-14.327,32-32V96c0-17.673-14.327-32-32-32H48C30.327,64,16,78.327,16,96z"/>
	</g>
	<g>
		<path fill="#F04B37" d="M464,192v244.686c0,6.248-5.065,11.314-11.314,11.314h0c-3.001,0-5.878-1.192-8-3.314L416,416H160
			c-17.673,0-32-14.327-32-32V192c0-17.673,14.327-32,32-32h272C449.673,160,464,174.327,464,192z"/>
	</g>
	<g>
		<path fill="#D7E6F0" d="M160,160c-17.673,0-32,14.327-32,32v128h192c17.673,0,32-14.327,32-32V160H160z"/>
	</g>
	<g>
		<circle fill="#A5C3DC" cx="176" cy="240" r="16"/>
	</g>
	<g>
		<circle fill="#A5C3DC" cx="240" cy="240" r="16"/>
	</g>
	<g>
		<circle fill="#A5C3DC" cx="304" cy="240" r="16"/>
	</g>
</g>
</svg>
