<?xml version="1.0" encoding="utf-8"?>
<!-- Generator: Adobe Illustrator 24.0.0, SVG Export Plug-In . SVG Version: 6.00 Build 0)  -->
<svg version="1.1" id="Layer_1" xmlns="http://www.w3.org/2000/svg" xmlns:xlink="http://www.w3.org/1999/xlink" x="0px" y="0px"
	 viewBox="0 0 512 512" enable-background="new 0 0 512 512" xml:space="preserve">
<g>
	<g>
		<path fill="#D7322D" d="M360,448h48c4.418,0,8-3.582,8-8v-88h-64v88C352,444.418,355.582,448,360,448z"/>
	</g>
	<g>
		<path fill="#D7322D" d="M136,448h88c4.418,0,8-3.582,8-8V288H128v152C128,444.418,131.582,448,136,448z"/>
	</g>
	<g>
		<path fill="#F04B37" d="M112,368c0,4.418-3.582,8-8,8s-8-3.582-8-8v-80H32v64c0,35.346,28.654,64,64,64l0,0
			c26.51,0,48-21.49,48-48H112z"/>
	</g>
	<g>
		<path fill="#F04B37" d="M336,80H96c-35.346,0-64,28.654-64,64v144h136v152c0,4.418,3.582,8,8,8h48c4.418,0,8-3.582,8-8v-72
			c0-8.836,7.164-16,16-16h168c8.836,0,16,7.164,16,16v72c0,4.418,3.582,8,8,8h48c4.418,0,8-3.582,8-8V240
			C496,151.634,424.365,80,336,80z"/>
	</g>
	<g>
		<path fill="#4B55A5" d="M448,304H240c-26.51,0-48-21.49-48-48V80h144c88.366,0,160,71.634,160,160v16
			C496,282.51,474.51,304,448,304z"/>
	</g>
	<g>
		<path fill="#A5C3DC" d="M480,256c0,17.645-14.355,32-32,32H240c-17.645,0-32-14.355-32-32V80h-16v176
			c0,2.485,0.189,4.927,0.553,7.31c3.156,20.657,19.48,36.981,40.137,40.137c2.384,0.364,4.825,0.553,7.31,0.553h208
			c2.485,0,4.927-0.189,7.31-0.553c20.657-3.156,36.981-19.48,40.137-40.137c0.364-2.384,0.553-4.825,0.553-7.31v-16
			c0-25.031-5.752-48.716-16-69.814V256z"/>
	</g>
	<g>
		<path fill="#D7322D" d="M168,208L168,208l0-128c0-8.837,7.163-16,16-16h48c4.418,0,8,3.582,8,8v64
			C240,175.765,207.765,208,168,208z"/>
	</g>
	<g>
		<path fill="#D7E6F0" d="M48,288h80v-32H16v0C16,273.673,30.327,288,48,288z"/>
	</g>
	<g>
		<circle fill="#463C4B" cx="117.333" cy="192" r="8"/>
	</g>
	<g>
		<g>
			<path fill="#D7E6F0" d="M262.611,158.076l6.803,13.784l15.211,2.21c2.799,0.407,3.917,3.846,1.891,5.821l-11.007,10.729
				l2.598,15.15c0.478,2.788-2.448,4.914-4.951,3.597l-13.606-7.153l-13.606,7.153c-2.504,1.316-5.43-0.81-4.951-3.597l2.598-15.15
				l-11.007-10.729c-2.025-1.974-0.908-5.414,1.891-5.821l15.211-2.21l6.803-13.784C257.742,155.54,261.359,155.54,262.611,158.076z
				"/>
		</g>
		<g>
			<path fill="#D7E6F0" d="M347.06,158.076l6.803,13.784l15.211,2.21c2.799,0.407,3.917,3.846,1.891,5.821l-11.007,10.729
				l2.598,15.15c0.478,2.788-2.448,4.914-4.951,3.597L344,202.215l-13.606,7.153c-2.504,1.316-5.43-0.81-4.951-3.597l2.598-15.15
				l-11.007-10.729c-2.025-1.974-0.908-5.414,1.891-5.821l15.211-2.21l6.803-13.784C342.192,155.54,345.808,155.54,347.06,158.076z"
				/>
		</g>
		<g>
			<path fill="#D7E6F0" d="M431.51,158.076l6.803,13.784l15.211,2.21c2.799,0.407,3.917,3.846,1.891,5.821l-11.007,10.729
				l2.598,15.15c0.478,2.788-2.448,4.914-4.951,3.597l-13.606-7.153l-13.606,7.153c-2.504,1.316-5.43-0.81-4.951-3.597l2.598-15.15
				l-11.007-10.729c-2.025-1.974-0.908-5.414,1.891-5.821l15.211-2.21l6.803-13.784C426.641,155.54,430.258,155.54,431.51,158.076z"
				/>
		</g>
	</g>
</g>
</svg>
